<?xml version="1.0" encoding="UTF-8" standalone="no"?>
<!-- Generator: Adobe Illustrator 15.1.0, SVG Export Plug-In . SVG Version: 6.00 Build 0)  -->

<svg
   xmlns:dc="http://purl.org/dc/elements/1.1/"
   xmlns:cc="http://creativecommons.org/ns#"
   xmlns:rdf="http://www.w3.org/1999/02/22-rdf-syntax-ns#"
   xmlns:svg="http://www.w3.org/2000/svg"
   xmlns="http://www.w3.org/2000/svg"
   xmlns:sodipodi="http://sodipodi.sourceforge.net/DTD/sodipodi-0.dtd"
   xmlns:inkscape="http://www.inkscape.org/namespaces/inkscape"
   version="1.1"
   id="Capa_1"
   x="0px"
   y="0px"
   width="170"
   height="45"
   viewBox="0 0 170 45"
   enable-background="new 0 0 246 65"
   xml:space="preserve"
   inkscape:version="0.47 r22583"
   sodipodi:docname="logo.svg"><metadata
   id="metadata91"><rdf:RDF><cc:Work
       rdf:about=""><dc:format>image/svg+xml</dc:format><dc:type
         rdf:resource="http://purl.org/dc/dcmitype/StillImage" /></cc:Work></rdf:RDF></metadata><defs
   id="defs89"><inkscape:perspective
     sodipodi:type="inkscape:persp3d"
     inkscape:vp_x="0 : 32.5 : 1"
     inkscape:vp_y="0 : 1000 : 0"
     inkscape:vp_z="246 : 32.5 : 1"
     inkscape:persp3d-origin="123 : 21.666667 : 1"
     id="perspective93" /></defs><sodipodi:namedview
   pagecolor="#ffffff"
   bordercolor="#666666"
   borderopacity="1"
   objecttolerance="10"
   gridtolerance="10"
   guidetolerance="10"
   inkscape:pageopacity="0"
   inkscape:pageshadow="2"
   inkscape:window-width="1440"
   inkscape:window-height="825"
   id="namedview87"
   showgrid="false"
   inkscape:zoom="7.8647059"
   inkscape:cx="84.999999"
   inkscape:cy="22.5"
   inkscape:window-x="0"
   inkscape:window-y="25"
   inkscape:window-maximized="1"
   inkscape:current-layer="Capa_1" />
<g
   id="g3"
   transform="matrix(0.69661543,0,0,0.69661543,-0.68407689,-0.13955942)">
	<path
   d="M 7.639,58.009 C 7.495,57.076 6.602,56.367 5.59,56.367 c -1.85,0 -2.547,1.575 -2.547,3.218 0,1.562 0.697,3.138 2.547,3.138 1.261,0 1.97,-0.854 2.129,-2.102 h 1.996 c -0.211,2.351 -1.812,3.835 -4.125,3.835 -2.888,0 -4.608,-2.165 -4.608,-4.871 0,-2.785 1.721,-4.95 4.608,-4.95 2.049,0 3.796,1.207 4.047,3.374 H 7.639 z"
   id="path5"
   style="fill:#1d1d1b" />
	<path
   d="m 12.34,61.291 c 0.052,1.195 0.617,1.721 1.667,1.721 0.748,0 1.353,-0.459 1.471,-0.88 h 1.643 c -0.526,1.615 -1.643,2.284 -3.179,2.284 -2.141,0 -3.466,-1.47 -3.466,-3.57 0,-2.036 1.404,-3.586 3.466,-3.586 2.312,0 3.44,1.943 3.295,4.031 H 12.34 z m 3.033,-1.182 c -0.17,-0.945 -0.578,-1.442 -1.484,-1.442 -1.208,0 -1.509,0.917 -1.549,1.442 h 3.033 z"
   id="path7"
   style="fill:#1d1d1b" />
	<path
   d="m 18.265,57.444 h 1.773 v 0.943 h 0.04 c 0.473,-0.773 1.287,-1.128 2.074,-1.128 1.984,0 2.482,1.116 2.482,2.797 v 4.176 h -1.865 v -3.835 c 0,-1.115 -0.315,-1.667 -1.195,-1.667 -1.012,0 -1.444,0.565 -1.444,1.942 v 3.56 h -1.865 v -6.788 z"
   id="path9"
   style="fill:#1d1d1b" />
	<path
   d="m 28.283,57.444 h 1.366 v 1.246 h -1.366 v 3.362 c 0,0.63 0.159,0.789 0.789,0.789 0.21,0 0.408,-0.014 0.578,-0.053 v 1.458 c -0.315,0.051 -0.722,0.064 -1.09,0.064 -1.155,0 -2.141,-0.248 -2.141,-1.615 V 58.69 H 25.29 v -1.246 h 1.128 v -2.035 h 1.865 v 2.035 z"
   id="path11"
   style="fill:#1d1d1b" />
	<path
   d="m 30.588,57.444 h 1.772 v 1.261 h 0.027 c 0.354,-0.854 1.234,-1.445 2.166,-1.445 0.144,0 0.275,0.026 0.407,0.064 v 1.733 c -0.17,-0.037 -0.446,-0.064 -0.669,-0.064 -1.379,0 -1.839,0.971 -1.839,2.181 v 3.059 h -1.864 v -6.789 z"
   id="path13"
   style="fill:#1d1d1b" />
	<path
   d="m 38.896,57.26 c 2.141,0 3.52,1.418 3.52,3.584 0,2.156 -1.378,3.572 -3.52,3.572 -2.127,0 -3.506,-1.416 -3.506,-3.572 0,-2.166 1.379,-3.584 3.506,-3.584 m 0,5.752 c 1.274,0 1.654,-1.076 1.654,-2.168 0,-1.09 -0.379,-2.178 -1.654,-2.178 -1.261,0 -1.642,1.088 -1.642,2.178 0.001,1.092 0.382,2.168 1.642,2.168"
   id="path15"
   style="fill:#1d1d1b" />
	<polygon
   points="53.171,61.146 53.195,61.146 53.195,54.856 55.126,54.856 55.126,64.232 53.065,64.232 49.165,57.957 49.139,57.957 49.139,64.232 47.208,64.232 47.208,54.856 49.258,54.856 "
   id="polygon17"
   style="fill:#1d1d1b" />
	<path
   d="m 56.565,59.533 c 0.105,-1.734 1.667,-2.272 3.192,-2.272 1.353,0 2.979,0.302 2.979,1.931 v 3.531 c 0,0.617 0.066,1.233 0.237,1.511 h -1.891 c -0.065,-0.21 -0.118,-0.435 -0.132,-0.655 -0.59,0.615 -1.444,0.839 -2.285,0.839 -1.301,0 -2.311,-0.644 -2.311,-2.035 0.026,-3.086 4.596,-1.433 4.517,-2.955 0,-0.788 -0.552,-0.919 -1.208,-0.919 -0.722,0 -1.168,0.288 -1.233,1.025 h -1.865 z m 4.308,1.378 c -0.315,0.275 -0.971,0.288 -1.549,0.395 -0.578,0.104 -1.103,0.315 -1.103,0.998 0,0.683 0.538,0.866 1.142,0.866 1.458,0 1.51,-1.142 1.51,-1.563 v -0.696 z"
   id="path19"
   style="fill:#1d1d1b" />
	<path
   d="m 68.621,59.835 c -0.118,-0.777 -0.578,-1.169 -1.379,-1.169 -1.196,0 -1.588,1.206 -1.588,2.205 0,0.984 0.381,2.141 1.549,2.141 0.88,0 1.366,-0.539 1.485,-1.379 h 1.798 c -0.25,1.8 -1.47,2.783 -3.27,2.783 -2.048,0 -3.427,-1.444 -3.427,-3.48 0,-2.112 1.26,-3.676 3.467,-3.676 1.602,0 3.086,0.841 3.191,2.575 h -1.826 z"
   id="path21"
   style="fill:#1d1d1b" />
	<path
   d="m 73.371,56.394 h -1.866 v -1.537 h 1.866 v 1.537 z m -1.866,1.05 h 1.866 v 6.788 h -1.866 v -6.788 z"
   id="path23"
   style="fill:#1d1d1b" />
	<path
   d="m 78.005,57.26 c 2.14,0 3.52,1.418 3.52,3.584 0,2.156 -1.38,3.572 -3.52,3.572 -2.127,0 -3.507,-1.416 -3.507,-3.572 0,-2.166 1.38,-3.584 3.507,-3.584 m 0,5.752 c 1.273,0 1.655,-1.076 1.655,-2.168 0,-1.09 -0.382,-2.178 -1.655,-2.178 -1.261,0 -1.642,1.088 -1.642,2.178 0.001,1.092 0.382,2.168 1.642,2.168"
   id="path25"
   style="fill:#1d1d1b" />
	<path
   d="m 82.632,57.444 h 1.772 v 0.943 h 0.04 c 0.473,-0.773 1.288,-1.128 2.075,-1.128 1.984,0 2.482,1.116 2.482,2.797 v 4.176 h -1.865 v -3.835 c 0,-1.115 -0.315,-1.667 -1.196,-1.667 -1.011,0 -1.444,0.565 -1.444,1.942 v 3.56 h -1.864 v -6.788 z"
   id="path27"
   style="fill:#1d1d1b" />
	<path
   d="m 90.25,59.533 c 0.104,-1.734 1.667,-2.272 3.191,-2.272 1.353,0 2.981,0.302 2.981,1.931 v 3.531 c 0,0.617 0.065,1.233 0.237,1.511 h -1.893 c -0.063,-0.21 -0.117,-0.435 -0.129,-0.655 -0.591,0.615 -1.444,0.839 -2.285,0.839 -1.3,0 -2.311,-0.644 -2.311,-2.035 0.025,-3.086 4.596,-1.433 4.517,-2.955 0,-0.788 -0.552,-0.919 -1.209,-0.919 -0.722,0 -1.168,0.288 -1.232,1.025 H 90.25 z m 4.307,1.378 c -0.316,0.275 -0.972,0.288 -1.55,0.395 -0.577,0.104 -1.104,0.315 -1.104,0.998 0,0.683 0.539,0.866 1.143,0.866 1.457,0 1.51,-1.142 1.51,-1.563 v -0.696 z"
   id="path29"
   style="fill:#1d1d1b" />
	<rect
   x="97.834"
   y="54.855999"
   width="1.862"
   height="9.3760004"
   id="rect31"
   style="fill:#1d1d1b" />
	<path
   d="m 109.403,63.366 h -0.027 c -0.432,0.736 -1.182,1.05 -2.062,1.05 -2.049,0 -3.046,-1.744 -3.046,-3.638 0,-1.825 1.012,-3.519 3.008,-3.519 0.801,0 1.588,0.341 2.009,1.012 h 0.026 v -3.413 h 1.865 v 9.374 h -1.772 v -0.866 z m -1.629,-4.7 c -1.221,0 -1.642,1.063 -1.642,2.167 0,1.062 0.486,2.18 1.642,2.18 1.22,0 1.602,-1.077 1.602,-2.194 0,-1.104 -0.394,-2.153 -1.602,-2.153"
   id="path33"
   style="fill:#1d1d1b" />
	<path
   d="m 114.077,61.291 c 0.052,1.195 0.616,1.721 1.667,1.721 0.75,0 1.354,-0.459 1.472,-0.88 h 1.642 c -0.526,1.615 -1.642,2.284 -3.178,2.284 -2.141,0 -3.467,-1.47 -3.467,-3.57 0,-2.036 1.404,-3.586 3.467,-3.586 2.311,0 3.44,1.943 3.295,4.031 h -4.898 z m 3.032,-1.182 c -0.17,-0.945 -0.579,-1.442 -1.484,-1.442 -1.208,0 -1.51,0.917 -1.549,1.442 h 3.033 z"
   id="path35"
   style="fill:#1d1d1b" />
	<path
   d="m 129.913,58.009 c -0.145,-0.933 -1.039,-1.642 -2.048,-1.642 -1.852,0 -2.548,1.575 -2.548,3.218 0,1.562 0.696,3.138 2.548,3.138 1.26,0 1.969,-0.854 2.126,-2.102 h 1.995 c -0.208,2.351 -1.81,3.835 -4.121,3.835 -2.89,0 -4.611,-2.165 -4.611,-4.871 0,-2.785 1.721,-4.95 4.611,-4.95 2.048,0 3.794,1.207 4.042,3.374 h -1.994 z"
   id="path37"
   style="fill:#1d1d1b" />
	<path
   d="m 136.31,57.26 c 2.14,0 3.521,1.418 3.521,3.584 0,2.156 -1.381,3.572 -3.521,3.572 -2.128,0 -3.506,-1.416 -3.506,-3.572 0,-2.166 1.378,-3.584 3.506,-3.584 m 0,5.752 c 1.274,0 1.656,-1.076 1.656,-2.168 0,-1.09 -0.382,-2.178 -1.656,-2.178 -1.26,0 -1.642,1.088 -1.642,2.178 0,1.092 0.382,2.168 1.642,2.168"
   id="path39"
   style="fill:#1d1d1b" />
	<path
   d="m 140.963,57.444 h 1.761 v 0.92 h 0.022 c 0.488,-0.698 1.185,-1.104 2.077,-1.104 0.854,0 1.617,0.303 1.982,1.128 0.408,-0.589 1.103,-1.128 2.048,-1.128 1.445,0 2.484,0.671 2.484,2.429 v 4.544 h -1.867 v -3.847 c 0,-0.906 -0.077,-1.655 -1.141,-1.655 -1.052,0 -1.25,0.88 -1.25,1.722 v 3.78 h -1.864 v -3.807 c 0,-0.788 0.055,-1.695 -1.129,-1.695 -0.369,0 -1.26,0.236 -1.26,1.564 v 3.938 h -1.864 v -6.789 z"
   id="path41"
   style="fill:#1d1d1b" />
	<path
   d="m 154.267,61.291 c 0.052,1.195 0.617,1.721 1.668,1.721 0.749,0 1.354,-0.459 1.473,-0.88 h 1.64 c -0.523,1.615 -1.64,2.284 -3.177,2.284 -2.14,0 -3.467,-1.47 -3.467,-3.57 0,-2.036 1.404,-3.586 3.467,-3.586 2.312,0 3.439,1.943 3.296,4.031 h -4.9 z m 3.034,-1.182 c -0.171,-0.945 -0.577,-1.442 -1.484,-1.442 -1.208,0 -1.509,0.917 -1.55,1.442 h 3.034 z"
   id="path43"
   style="fill:#1d1d1b" />
	<path
   d="m 160.192,57.444 h 1.772 v 1.261 h 0.027 c 0.354,-0.854 1.232,-1.445 2.165,-1.445 0.146,0 0.277,0.026 0.409,0.064 v 1.733 c -0.172,-0.037 -0.449,-0.064 -0.672,-0.064 -1.379,0 -1.838,0.971 -1.838,2.181 v 3.059 h -1.864 v -6.789 z"
   id="path45"
   style="fill:#1d1d1b" />
	<path
   d="m 169.82,59.835 c -0.117,-0.777 -0.578,-1.169 -1.379,-1.169 -1.195,0 -1.59,1.206 -1.59,2.205 0,0.984 0.382,2.141 1.55,2.141 0.881,0 1.366,-0.539 1.483,-1.379 h 1.8 c -0.25,1.8 -1.471,2.783 -3.269,2.783 -2.05,0 -3.429,-1.444 -3.429,-3.48 0,-2.112 1.262,-3.676 3.467,-3.676 1.602,0 3.087,0.841 3.191,2.575 h -1.824 z"
   id="path47"
   style="fill:#1d1d1b" />
	<path
   d="m 174.569,56.394 h -1.864 v -1.537 h 1.864 v 1.537 z m -1.864,1.05 h 1.864 v 6.788 h -1.864 v -6.788 z"
   id="path49"
   style="fill:#1d1d1b" />
	<path
   d="m 179.204,57.26 c 2.141,0 3.521,1.418 3.521,3.584 0,2.156 -1.38,3.572 -3.521,3.572 -2.127,0 -3.506,-1.416 -3.506,-3.572 0,-2.166 1.379,-3.584 3.506,-3.584 m 0,5.752 c 1.274,0 1.656,-1.076 1.656,-2.168 0,-1.09 -0.382,-2.178 -1.656,-2.178 -1.26,0 -1.642,1.088 -1.642,2.178 0,1.092 0.382,2.168 1.642,2.168"
   id="path51"
   style="fill:#1d1d1b" />
	<polygon
   points="194.531,56.591 189.579,56.591 189.579,58.599 194.122,58.599 194.122,60.203 189.579,60.203 189.579,62.5 194.635,62.5 194.635,64.232 187.517,64.232 187.517,54.856 194.531,54.856 "
   id="polygon53"
   style="fill:#1d1d1b" />
	<polygon
   points="197.541,57.445 198.733,59.219 199.916,57.445 201.978,57.445 199.745,60.621 202.255,64.232 200.125,64.232 198.709,62.093 197.29,64.232 195.2,64.232 197.645,60.662 195.411,57.445 "
   id="polygon55"
   style="fill:#1d1d1b" />
	<path
   d="m 205.471,57.444 h 1.364 v 1.246 h -1.364 v 3.362 c 0,0.63 0.156,0.789 0.789,0.789 0.208,0 0.406,-0.014 0.575,-0.053 v 1.458 c -0.312,0.051 -0.722,0.064 -1.089,0.064 -1.155,0 -2.14,-0.248 -2.14,-1.615 V 58.69 h -1.131 v -1.246 h 1.131 v -2.035 h 1.864 v 2.035 z"
   id="path57"
   style="fill:#1d1d1b" />
	<path
   d="m 209.123,61.291 c 0.053,1.195 0.617,1.721 1.669,1.721 0.746,0 1.352,-0.459 1.469,-0.88 h 1.644 c -0.528,1.615 -1.644,2.284 -3.179,2.284 -2.143,0 -3.467,-1.47 -3.467,-3.57 0,-2.036 1.403,-3.586 3.467,-3.586 2.311,0 3.439,1.943 3.295,4.031 h -4.898 z m 3.031,-1.182 c -0.169,-0.945 -0.576,-1.442 -1.483,-1.442 -1.208,0 -1.508,0.917 -1.548,1.442 h 3.031 z"
   id="path59"
   style="fill:#1d1d1b" />
	<path
   d="m 215.047,57.444 h 1.773 v 1.261 h 0.026 c 0.354,-0.854 1.233,-1.445 2.165,-1.445 0.146,0 0.277,0.026 0.409,0.064 v 1.733 c -0.173,-0.037 -0.448,-0.064 -0.67,-0.064 -1.378,0 -1.839,0.971 -1.839,2.181 v 3.059 h -1.865 v -6.789 z"
   id="path61"
   style="fill:#1d1d1b" />
	<path
   d="m 221.988,56.394 h -1.862 v -1.537 h 1.862 v 1.537 z m -1.862,1.05 h 1.862 v 6.788 h -1.862 v -6.788 z"
   id="path63"
   style="fill:#1d1d1b" />
	<path
   d="m 226.625,57.26 c 2.141,0 3.52,1.418 3.52,3.584 0,2.156 -1.379,3.572 -3.52,3.572 -2.127,0 -3.506,-1.416 -3.506,-3.572 0,-2.166 1.379,-3.584 3.506,-3.584 m 0,5.752 c 1.274,0 1.654,-1.076 1.654,-2.168 0,-1.09 -0.38,-2.178 -1.654,-2.178 -1.262,0 -1.642,1.088 -1.642,2.178 0,1.092 0.38,2.168 1.642,2.168"
   id="path65"
   style="fill:#1d1d1b" />
	<path
   d="m 231.252,57.444 h 1.772 v 1.261 h 0.025 c 0.356,-0.854 1.234,-1.445 2.167,-1.445 0.146,0 0.277,0.026 0.406,0.064 v 1.733 c -0.169,-0.037 -0.443,-0.064 -0.669,-0.064 -1.379,0 -1.838,0.971 -1.838,2.181 v 3.059 h -1.864 v -6.789 z"
   id="path67"
   style="fill:#1d1d1b" />
	<path
   d="m 174.311,47.531 c -1.166,0 -1.554,-0.519 -1.554,-1.687 V 5.121 c 0,-1.168 0.388,-1.687 1.554,-1.687 h 22.181 c 1.104,0 1.621,0.39 1.621,1.558 v 4.085 c 0,1.166 -0.518,1.62 -1.621,1.62 h -14.98 v 10.507 h 13.877 c 1.168,0 1.688,0.39 1.688,1.556 v 3.89 c 0,1.104 -0.52,1.557 -1.688,1.557 h -13.877 v 12.062 h 14.941 c 1.168,0 1.62,0.392 1.62,1.558 v 4.086 c 0,1.167 -0.452,1.619 -1.62,1.619 h -22.142 z"
   id="path69"
   style="fill:#1d1d1b" />
	<path
   d="m 225.317,28.71 0,0 -1.056,-1.827 c -1.899,3.006 -3.633,6.013 -5.17,8.846 l 2.938,5.086 0.751,1.303 2.11,3.649 c 0.618,1.037 1.312,1.729 2.554,1.729 h 6.912 c 1.243,0 1.312,-0.9 0.69,-1.934 L 225.317,28.71 z"
   id="path71"
   style="fill:#1d1d1b" />
	<path
   d="m 211.28,22.236 0.006,-0.011 0.18,0.314 c 1.954,-2.752 3.921,-5.286 5.898,-7.599 l -2.716,-4.7 -0.805,-1.416 -2.109,-3.648 c -0.621,-1.037 -1.313,-1.727 -2.557,-1.727 h -6.91 c -1.241,0 -1.312,0.897 -0.688,1.934 l 9.701,16.853 z"
   id="path73"
   style="fill:#1d1d1b" />
	<path
   d="m 240.938,3.691 0,0 c 0.138,-0.095 0.312,-0.209 0.514,-0.334 0.625,-0.408 1.257,-0.79 1.894,-1.146 0.483,-0.295 0.942,-0.582 1.287,-0.821 0.841,-0.575 0.046,-0.84 0.046,-0.84 -0.48,-0.033 -1.124,0.055 -1.356,0.091 -0.331,0.058 -0.678,0.125 -1.04,0.206 -8.504,1.867 -25.056,10.112 -44.332,50.562 -0.382,0.862 -0.192,1.547 0.895,1.547 h 6.908 c 1.243,0 1.936,-0.692 2.558,-1.728 0,0 13.758,-34.78 32.615,-47.527 V 3.699 c 0.004,-10e-4 0.008,-0.006 0.011,-0.008"
   id="path75"
   style="fill:#0069b3" />
	<path
   d="m 31.72,37.498 c 0,5.462 -3.513,10.599 -15.283,10.599 C 4.665,48.097 1.153,42.96 1.153,37.498 V 13.435 c 0,-5.463 3.512,-10.601 15.284,-10.601 11.77,0 15.283,5.138 15.283,10.601 v 3.122 c 0,1.17 -0.39,1.625 -1.496,1.625 h -5.398 c -1.171,0 -1.626,-0.455 -1.626,-1.625 v -1.562 c 0,-3.251 -2.278,-4.877 -6.634,-4.877 -4.358,0 -6.568,1.625 -6.568,4.877 v 20.94 c 0,3.254 2.21,4.879 6.568,4.879 4.356,0 6.634,-1.625 6.634,-4.879 v -2.47 c 0,-1.171 0.455,-1.625 1.626,-1.625 h 5.398 c 1.105,0 1.496,0.454 1.496,1.625 v 4.033 z"
   id="path77"
   style="fill:#1d1d1b" />
	<path
   d="m 37.659,47.576 c -1.17,0 -1.561,-0.519 -1.561,-1.69 V 5.046 c 0,-1.171 0.39,-1.691 1.561,-1.691 H 59.9 c 1.105,0 1.626,0.389 1.626,1.562 v 4.097 c 0,1.17 -0.521,1.626 -1.626,1.626 H 44.878 v 10.535 h 13.916 c 1.171,0 1.692,0.39 1.692,1.562 v 3.901 c 0,1.105 -0.521,1.562 -1.692,1.562 H 44.878 V 40.295 H 60.55 c 1.172,0 1.627,0.39 1.627,1.56 v 4.098 c 0,1.169 -0.455,1.625 -1.627,1.625 H 37.659 z"
   id="path79"
   style="fill:#1d1d1b" />
	<path
   d="m 97.45,45.95 c 0,1.107 -0.39,1.626 -1.559,1.626 h -5.139 c -0.847,0 -1.171,-0.195 -1.496,-0.78 L 76.703,25.271 c -1.754,-2.926 -2.536,-5.073 -2.6,-5.268 V 45.95 c 0,1.107 -0.391,1.626 -1.559,1.626 h -5.139 c -1.172,0 -1.562,-0.519 -1.562,-1.626 V 4.98 c 0,-1.106 0.39,-1.626 1.562,-1.626 h 5.139 c 0.713,0 1.103,0.194 1.364,0.65 L 86.98,26.441 c 1.104,1.886 2.211,4.553 2.211,4.553 V 4.98 c 0,-1.106 0.39,-1.626 1.561,-1.626 h 5.139 c 1.169,0 1.559,0.521 1.559,1.626 v 40.97 z"
   id="path81"
   style="fill:#1d1d1b" />
	<path
   d="m 132.393,37.498 c 0,5.462 -3.511,10.599 -15.281,10.599 -11.771,0 -15.283,-5.137 -15.283,-10.599 V 13.435 c 0,-5.463 3.512,-10.601 15.283,-10.601 11.771,0 15.281,5.138 15.281,10.601 v 3.122 c 0,1.17 -0.39,1.625 -1.494,1.625 h -5.397 c -1.172,0 -1.627,-0.455 -1.627,-1.625 v -1.562 c 0,-3.251 -2.275,-4.877 -6.634,-4.877 -4.356,0 -6.568,1.625 -6.568,4.877 v 20.94 c 0,3.254 2.212,4.879 6.568,4.879 4.359,0 6.634,-1.625 6.634,-4.879 v -2.47 c 0,-1.171 0.455,-1.625 1.627,-1.625 h 5.397 c 1.104,0 1.494,0.454 1.494,1.625 v 4.033 z"
   id="path83"
   style="fill:#1d1d1b" />
	<path
   d="m 136.771,13.435 c 0,-5.463 4.031,-10.602 15.804,-10.602 11.771,0 15.805,5.138 15.805,10.602 v 24.063 c 0,5.462 -4.034,10.599 -15.805,10.599 -11.772,0 -15.804,-5.137 -15.804,-10.599 V 13.435 z m 22.827,1.56 c 0,-3.251 -2.668,-4.877 -7.023,-4.877 -4.356,0 -6.958,1.625 -6.958,4.877 v 20.941 c 0,3.252 2.602,4.878 6.958,4.878 4.355,0 7.023,-1.626 7.023,-4.878 V 14.995 z"
   id="path85"
   style="fill:#1d1d1b" />
</g>
</svg>